# xmcd
#
# Track frame offsets: 
#        150
#        11674
#        24767
#        34401
#        45335
#        57257
#        87917
#        111503
#        123743
#        137544
#        149226
#        159620
#        177413
#
# Disc length: 2684 seconds
#
# Revision: 0
# Processed by: cddbd v1.5.2PL0 Copyright (c) Steve Scherf et al.
# Submitted via: ExactAudioCopy v0.99pb4
#
DISCID=b70a7a0d
DTITLE=Fats Domino - The World Of Fats Domino CD2
DYEAR=2008
DGENRE=Rythm&Blues
TTITLE0=Going To The River
TTITLE1=I'm In The Mood For Love
TTITLE2=What A Price
TTITLE3=I'm Going To Be A Wheel Someday
TTITLE4=I Wanna Walk You Home
TTITLE5=Let Four Winds Blow
TTITLE6=Another Mule
TTITLE7=Valley Of Tears 
TTITLE8=Poor Me
TTITLE9=Blueberry Hill 
TTITLE10=Going To Mardi Gras
TTITLE11=When The Saints Go Marchin' In  
TTITLE12=Sentimental Journey (Instrumental)
EXTD=
EXTT0=
EXTT1=
EXTT2=
EXTT3=
EXTT4=
EXTT5=
EXTT6=
EXTT7=
EXTT8=
EXTT9=
EXTT10=
EXTT11=
EXTT12=
PLAYORDER=
